<svg width="60" height="60" viewBox="0 0 60 60" fill="none" xmlns="http://www.w3.org/2000/svg">
<path d="M53.1781 22.9458C52.4531 21.7958 51.6781 20.7208 50.8781 19.7208C49.9531 18.5458 48.2031 18.4458 47.1531 19.4958L39.6531 26.9957C40.2031 28.6457 40.3031 30.5457 39.8031 32.5207C38.9281 36.0457 36.0781 38.8957 32.5531 39.7707C30.5781 40.2707 28.6781 40.1707 27.0281 39.6207C27.0281 39.6207 23.4531 43.1957 20.8781 45.7707C19.6281 47.0207 20.0281 49.2207 21.7031 49.8707C24.3781 50.8957 27.1531 51.4207 30.0031 51.4207C34.4531 51.4207 38.7781 50.1207 42.7281 47.6957C46.7531 45.1957 50.3781 41.5208 53.3031 36.8458C55.6781 33.0708 55.5531 26.7207 53.1781 22.9458Z" fill="#929599"/>
<path d="M35.0511 24.9516L24.9511 35.0515C23.6761 33.7515 22.8511 31.9515 22.8511 30.0015C22.8511 26.0765 26.0511 22.8516 30.0011 22.8516C31.9511 22.8516 33.7511 23.6766 35.0511 24.9516Z" fill="#929599"/>
<path d="M45.6246 14.3742L37.1496 22.8492C35.3246 20.9992 32.7996 19.8992 29.9996 19.8992C24.3996 19.8992 19.8996 24.4242 19.8996 29.9992C19.8996 32.7992 21.0246 35.3242 22.8496 37.1492L14.3996 45.6242H14.3746C11.5996 43.3742 9.04956 40.4992 6.87456 37.0992C4.37456 33.1742 4.37456 26.7992 6.87456 22.8742C9.77456 18.3242 13.3246 14.7492 17.2746 12.2992C21.2246 9.89923 25.5496 8.57422 29.9996 8.57422C35.5746 8.57422 40.9746 10.6242 45.6246 14.3742Z" fill="#929599"/>
<path d="M37.1448 29.9953C37.1448 33.9203 33.9448 37.1453 29.9948 37.1453C29.8448 37.1453 29.7198 37.1453 29.5698 37.0953L37.0948 29.5703C37.1448 29.7203 37.1448 29.8453 37.1448 29.9953Z" fill="#929599"/>
<path d="M54.4218 5.57228C53.6718 4.82228 52.4468 4.82228 51.6968 5.57228L5.57184 51.7222C4.82184 52.4723 4.82184 53.6973 5.57184 54.4473C5.94684 54.7973 6.42184 54.9972 6.92184 54.9972C7.42184 54.9972 7.89684 54.7972 8.27184 54.4222L54.4218 8.27228C55.1968 7.52228 55.1968 6.32228 54.4218 5.57228Z" fill="#929599"/>
</svg>
