<svg width="60" height="60" viewBox="0 0 60 60" fill="none" xmlns="http://www.w3.org/2000/svg">
<path d="M53.1246 22.8742C47.3496 13.7992 38.8996 8.57422 29.9996 8.57422C25.5496 8.57422 21.2246 9.87423 17.2746 12.2992C13.3246 14.7492 9.77456 18.3242 6.87456 22.8742C4.37456 26.7992 4.37456 33.1742 6.87456 37.0992C12.6496 46.1992 21.0996 51.3993 29.9996 51.3993C34.4496 51.3993 38.7746 50.0993 42.7246 47.6743C46.6746 45.2243 50.2246 41.6492 53.1246 37.0992C55.6246 33.1992 55.6246 26.7992 53.1246 22.8742ZM29.9996 40.0992C24.3996 40.0992 19.8996 35.5742 19.8996 29.9992C19.8996 24.4242 24.3996 19.8992 29.9996 19.8992C35.5996 19.8992 40.0996 24.4242 40.0996 29.9992C40.0996 35.5742 35.5996 40.0992 29.9996 40.0992Z" fill="#929599"/>
<path d="M29.9956 22.8516C26.0706 22.8516 22.8707 26.0515 22.8707 30.0015C22.8707 33.9265 26.0706 37.1265 29.9956 37.1265C33.9206 37.1265 37.1456 33.9265 37.1456 30.0015C37.1456 26.0765 33.9206 22.8516 29.9956 22.8516Z" fill="#929599"/>
</svg>
